<svg width="928" height="205" viewBox="0 0 928 205" fill="none" xmlns="http://www.w3.org/2000/svg">
<path d="M47.15 85.4915C54.7612 85.4915 61.5322 86.1819 67.4631 87.5626C73.4433 88.9433 78.4845 90.861 82.5866 93.3156C86.7382 95.7702 89.9013 98.7362 92.0759 102.214C94.2506 105.64 95.3379 109.424 95.3379 113.566V124.765C95.3379 129.163 94.4977 132.717 92.8173 135.427C91.1863 138.138 88.9128 140.311 85.9969 141.947C88.4186 142.663 90.6427 143.584 92.669 144.709C94.7448 145.834 96.4993 147.215 97.9326 148.851C99.4153 150.436 100.552 152.303 101.343 154.451C102.183 156.547 102.603 158.976 102.603 161.738V176.772C102.603 180.914 101.145 184.724 98.2292 188.201C95.3132 191.628 91.3346 194.594 86.2934 197.099C81.2522 199.605 75.3708 201.548 68.6492 202.929C61.9276 204.31 54.7612 205 47.15 205C42.8996 205 38.5503 204.821 34.1022 204.463C29.6541 204.156 25.3295 203.722 21.1285 203.159C16.977 202.597 13.0725 201.957 9.41517 201.241C5.75784 200.525 2.61944 199.784 0 199.017V91.3212C2.61944 90.5541 5.75784 89.8382 9.41517 89.1734C13.0725 88.4575 16.977 87.8438 21.1285 87.3325C25.3295 86.77 29.6541 86.3353 34.1022 86.0285C38.5503 85.6705 42.8996 85.4915 47.15 85.4915ZM46.5569 152.533C43.888 152.533 41.2192 152.558 38.5503 152.61C35.8814 152.61 33.2867 152.686 30.7661 152.84C28.2949 152.942 25.9226 153.121 23.6491 153.377C21.3757 153.632 19.3246 153.965 17.4959 154.374V183.522C18.4844 183.88 19.7447 184.289 21.2768 184.75C22.8584 185.21 24.8353 185.644 27.2076 186.054C29.58 186.463 32.4218 186.821 35.7332 187.127C39.0445 187.383 42.949 187.511 47.4465 187.511C52.982 187.511 57.949 187.051 62.3477 186.13C66.7958 185.21 70.5273 183.982 73.5421 182.448C76.6064 180.914 78.954 179.15 80.585 177.156C82.216 175.11 83.0315 172.988 83.0315 170.789V164.192C83.0315 161.789 81.9936 159.82 79.9178 158.286C77.842 156.752 75.099 155.576 71.6888 154.757C68.2785 153.888 64.3741 153.3 59.9754 152.993C55.6261 152.686 51.1533 152.533 46.5569 152.533ZM17.4959 133.51C20.5602 134.123 24.0445 134.532 27.949 134.737C31.9029 134.942 36.3757 135.044 41.3675 135.044C45.6673 135.044 49.9424 134.89 54.1928 134.584C58.4433 134.226 62.2736 133.663 65.6838 132.896C69.094 132.078 71.8617 131.004 73.9869 129.674C76.1122 128.294 77.1995 126.555 77.2489 124.458V119.549C77.2489 117.35 76.73 115.254 75.6921 113.259C74.7036 111.214 73.0232 109.424 70.6509 107.89C68.328 106.356 65.2637 105.128 61.4581 104.208C57.6525 103.287 52.982 102.827 47.4465 102.827C42.949 102.827 39.0445 102.981 35.7332 103.287C32.4218 103.543 29.58 103.875 27.2076 104.285C24.8353 104.694 22.8584 105.128 21.2768 105.589C19.7447 106.049 18.4844 106.458 17.4959 106.816V133.51Z" fill="#D50000"/>
<path d="M140.56 175.698C140.56 178.051 141.376 180.019 143.007 181.605C144.687 183.19 146.911 184.494 149.679 185.517C152.496 186.488 155.733 187.204 159.391 187.664C163.048 188.073 166.854 188.278 170.808 188.278C174.959 188.278 178.864 188.048 182.521 187.588C186.178 187.076 189.366 186.335 192.084 185.363C194.803 184.34 196.953 183.036 198.534 181.451C200.116 179.866 200.906 177.948 200.906 175.698V116.021L220.626 117.555V180.607C220.626 183.369 219.959 185.9 218.625 188.201C217.34 190.503 215.536 192.574 213.213 194.415C210.89 196.204 208.147 197.764 204.984 199.094C201.821 200.423 198.386 201.523 194.679 202.392C191.022 203.261 187.142 203.901 183.04 204.31C178.987 204.77 174.91 205 170.808 205C166.656 205 162.554 204.77 158.501 204.31C154.448 203.901 150.569 203.261 146.862 202.392C143.205 201.523 139.794 200.423 136.631 199.094C133.468 197.764 130.725 196.204 128.402 194.415C126.079 192.574 124.251 190.528 122.916 188.278C121.631 185.977 120.989 183.42 120.989 180.607V117.555L140.56 116.021V175.698Z" fill="#D50000"/>
<path d="M263.032 203.466H246.129V88.2529H263.032V203.466Z" fill="#D50000"/>
<path d="M309.737 203.466H292.834V88.2529H309.737V203.466Z" fill="#D50000"/>
<path d="M439.235 127.399L492.983 42.1695C498.817 42.5246 504.343 42.9863 509.56 43.5545C514.777 44.0516 519.342 44.5843 523.255 45.1525C527.854 45.7917 532.11 -0.632648 536.022 0.0065711V51.9062C536.022 61.957 526.658 69.3857 516.871 67.099V67.099V177.045L523.747 175.438C530.02 173.973 536.022 178.734 536.022 185.176V198.991C528.746 200.483 521.573 201.584 514.503 202.294C510.85 202.661 507.17 202.98 503.463 203.253C497.764 203.671 492.983 199.106 492.983 193.392V86.9148L447.669 159.668C443.768 165.931 434.66 165.957 430.723 159.717L384.663 86.7018V193.265C384.663 199.027 379.805 203.609 374.063 203.141C372.027 202.975 370.035 202.799 368.085 202.614C362.869 202.116 358.304 201.584 354.391 201.016C349.792 200.376 345.536 199.702 341.623 198.991V185.176C341.623 178.734 347.625 173.973 353.898 175.438L360.775 177.045V66.886V66.886C350.988 69.1726 341.623 61.744 341.623 51.6932V0.0065711C345.536 -0.632648 349.792 45.5787 354.391 44.9394C358.304 44.3712 362.869 43.8386 368.085 43.3414C373.302 42.7732 378.828 42.3115 384.663 41.9564L439.235 127.399Z" fill="#D50000"/>
<path d="M632.052 116.021C632.052 121.339 631.879 126.887 631.533 132.666C631.187 138.393 630.52 144.3 629.532 150.385H611.591C612.036 148.646 612.456 146.754 612.851 144.709C613.148 142.97 613.42 140.95 613.667 138.649C613.963 136.297 614.111 133.817 614.111 131.208C609.762 131.311 606.154 131.745 603.288 132.513C600.471 133.228 598.123 134.098 596.245 135.121C594.367 136.092 592.835 137.089 591.649 138.112C590.462 139.135 589.4 139.953 588.461 140.567V203.466H569.482V140.106C569.284 138.47 568.815 137.089 568.074 135.964C567.382 134.839 566.64 133.919 565.849 133.203C564.96 132.334 563.947 131.618 562.81 131.055L570.668 116.021C572.497 116.685 574.301 117.58 576.08 118.705C577.612 119.677 579.218 120.93 580.899 122.464C582.629 123.947 584.161 125.788 585.495 127.987C588.016 126.197 590.339 124.688 592.464 123.461C594.589 122.183 596.64 121.109 598.617 120.239C600.644 119.37 602.719 118.705 604.845 118.245C607.019 117.734 609.392 117.325 611.962 117.018C614.581 116.711 617.497 116.506 620.71 116.404C623.971 116.251 627.752 116.123 632.052 116.021Z" fill="#D50000"/>
<path d="M703.222 116.021C710.537 116.021 716.863 116.66 722.201 117.938C727.538 119.166 731.937 121.007 735.397 123.461C738.906 125.916 741.476 128.984 743.107 132.666C744.787 136.297 745.627 140.516 745.627 145.322C745.627 148.288 745.281 150.973 744.589 153.377C743.947 155.729 743.033 157.851 741.846 159.743C740.66 161.584 739.202 163.221 737.472 164.652C735.792 166.084 733.914 167.312 731.838 168.334C733.667 171.556 735.199 174.854 736.435 178.23C737.72 181.605 738.757 184.852 739.548 187.971C740.388 191.091 740.982 194.005 741.328 196.716C741.723 199.375 741.921 201.625 741.921 203.466H722.942C722.942 200.346 722.695 197.406 722.201 194.645C721.706 191.883 721.014 189.25 720.125 186.744C719.285 184.238 718.271 181.86 717.085 179.61C715.949 177.36 714.738 175.187 713.453 173.09C711.377 173.346 709.227 173.525 707.003 173.627C704.828 173.678 702.629 173.704 700.405 173.704C694.968 173.704 689.606 173.525 684.318 173.167C679.029 172.809 674.062 172.425 669.416 172.016V203.466H651.624V86.7188H669.416V126.299C673.963 123.129 679.079 120.623 684.762 118.782C690.495 116.941 696.649 116.021 703.222 116.021ZM702.777 131.055C699.12 131.055 695.685 131.311 692.472 131.822C689.26 132.334 686.27 133.049 683.502 133.97C680.734 134.839 678.164 135.888 675.792 137.115C673.469 138.291 671.344 139.544 669.416 140.873V160.664C670.504 160.715 672.011 160.843 673.939 161.047C675.866 161.201 678.041 161.405 680.462 161.661C682.934 161.865 685.553 162.07 688.321 162.275C691.138 162.428 693.98 162.505 696.846 162.505C700.553 162.505 704.186 162.3 707.744 161.891C711.303 161.431 714.491 160.613 717.308 159.436C720.125 158.26 722.374 156.649 724.054 154.604C725.784 152.558 726.649 149.925 726.649 146.703C726.649 142.97 725.883 140.055 724.351 137.959C722.818 135.811 720.866 134.251 718.494 133.28C716.121 132.257 713.527 131.643 710.71 131.439C707.942 131.183 705.298 131.055 702.777 131.055Z" fill="#D50000"/>
<path d="M789.071 114.947H807.901V127.833H789.071V203.466H771.426V127.833H757.489V114.947H771.426V88.2529H789.071V114.947Z" fill="#D50000"/>
<path d="M876.254 116.021C878.774 116.021 881.814 116.148 885.372 116.404C888.931 116.66 892.613 117.12 896.418 117.785C900.273 118.399 904.079 119.293 907.835 120.47C911.591 121.595 914.952 123.052 917.918 124.842C920.932 126.632 923.354 128.805 925.183 131.362C927.061 133.868 928 136.834 928 140.26V166.187H843.041V185.823C849.021 186.693 854.779 187.306 860.315 187.664C865.85 187.971 871.163 188.125 876.254 188.125C884.013 188.125 891.031 187.818 897.308 187.204C903.634 186.59 909.096 185.9 913.692 185.133C918.98 184.264 923.75 183.267 928 182.142V199.17C918.609 200.704 909.54 201.804 900.792 202.469C892.094 203.133 883.914 203.466 876.254 203.466C868.544 203.466 861.55 203.261 855.273 202.852C848.997 202.392 843.609 201.881 839.112 201.318C833.873 200.704 829.153 199.989 824.952 199.17V140.26C824.952 136.834 825.768 133.868 827.398 131.362C829.029 128.805 831.204 126.632 833.922 124.842C836.641 123.052 839.754 121.595 843.263 120.47C846.822 119.293 850.504 118.399 854.31 117.785C858.115 117.12 861.896 116.66 865.652 116.404C869.458 116.148 872.992 116.021 876.254 116.021ZM843.041 153.914H909.614V145.016C909.614 142.919 909.12 141.129 908.132 139.646C907.143 138.112 905.809 136.834 904.128 135.811C902.497 134.788 900.57 133.97 898.346 133.356C896.171 132.691 893.898 132.206 891.525 131.899C889.153 131.541 886.756 131.311 884.334 131.208C881.962 131.106 879.713 131.055 877.588 131.055C875.364 131.055 872.967 131.106 870.397 131.208C867.876 131.311 865.331 131.541 862.761 131.899C860.191 132.257 857.72 132.768 855.347 133.433C852.975 134.047 850.875 134.89 849.046 135.964C847.217 136.987 845.759 138.265 844.672 139.8C843.585 141.283 843.041 143.072 843.041 145.169V153.914Z" fill="#D50000"/>
</svg>
