<svg width="90" height="77" viewBox="0 0 90 77" fill="none" xmlns="http://www.w3.org/2000/svg">
<path d="M86.9329 24.5697C87.553 25.3042 87.9664 26.0386 88.2765 26.4583C88.2765 26.4583 88.2765 26.5633 88.3799 26.5633C88.3799 26.5633 88.3799 26.6682 88.4832 26.6682C88.5866 26.7731 88.6899 26.878 88.6899 27.0879C86.9329 20.058 83.1087 17.7497 81.3516 17.0153C81.3516 16.8054 81.2483 16.7005 81.2483 16.4906C83.0053 16.9103 86.3127 17.8546 87.2429 18.799C88.5866 20.058 89 21.2122 89 21.2122C89 21.2122 88.1731 15.966 84.0389 14.602C82.0751 13.9725 80.6281 13.0105 79.9046 12.5908C79.9046 12.5908 79.9046 9.67065 72.1529 4.94912C64.4012 0.122657 56.1327 -0.0871899 55.4092 0.0177331C55.4092 0.0177331 46.5205 0.962041 41.9729 6.41804C37.4252 11.874 34.3245 16.5956 31.1205 17.9596C28.0198 19.3236 25.6426 23.7303 23.0587 24.6746C20.5781 25.619 20.0613 25.4091 18.4076 27.0879C18.4076 27.0879 17.064 28.6617 15.9271 30.2356C14.7902 31.8094 10.7593 31.8094 9.82906 31.7045C8.38207 31.4946 7.24515 29.3962 7.24515 29.3962C6.31494 28.242 7.14179 29.1863 5.79816 27.8223C3.52432 25.619 1.4572 28.347 1.4572 28.347L2.90418 28.8716C2.90418 28.8716 1.56055 28.9765 1.35384 28.9765C0.837058 28.9765 0.216921 28.8716 0.010208 28.6617C0.010208 28.6617 -0.196505 30.2356 1.25048 30.4454C2.07733 30.5503 2.49076 30.5503 2.80083 30.5503L1.56055 30.7602C1.56055 30.7602 1.66391 30.7602 1.87062 30.8651C2.18069 30.97 2.59412 31.0749 2.90418 30.97H3.00754C3.73104 30.7602 4.66124 30.5503 5.48809 30.97C6.31494 31.3897 6.93508 32.6488 8.38207 33.1734C10.2425 33.8029 10.6559 33.698 12.9297 33.4882C15.617 33.1734 15.4103 32.9636 16.6506 32.4389C16.6506 32.4389 17.8909 31.7045 18.6143 30.8651C18.6143 30.7602 18.7177 30.7602 18.7177 30.6553C18.9244 30.3405 19.4412 29.8159 20.1647 29.8159C20.1647 29.8159 18.9244 32.8586 21.5083 35.6916C21.5083 35.6916 21.5083 35.7965 21.6117 35.7965C21.8184 36.0063 22.1285 36.8457 20.9915 38.6294C20.8882 38.7343 20.8882 38.8393 20.7848 38.8393C20.5781 38.9442 18.6143 41.2525 19.1311 43.5608C19.3866 44.7019 19.0359 45.4327 18.6159 45.8801C18.209 46.3135 17.9121 46.9831 18.0976 47.5479V47.5479C18.0976 47.6528 18.2009 47.8626 18.2009 47.9676C18.7177 49.8562 19.2345 52.5842 19.2345 53.2137V53.3186L18.9244 55.6269C22.5419 56.4663 24.2989 55.6269 24.2989 55.6269C25.3325 53.6334 24.5057 52.2694 24.5057 52.2694C24.5057 52.2694 23.4721 52.794 22.5419 49.7512C22.5419 49.7512 23.3687 46.7085 23.9889 45.6592C23.9889 45.5543 24.1956 45.4494 24.5057 45.2396C24.7124 45.0297 25.0224 44.9248 25.4359 44.7149C25.4359 44.7149 29.4668 42.8263 29.9835 42.4066C31.1205 41.7771 31.9473 41.1476 32.2574 40.4131L34.1178 38.5245C34.1178 38.5245 38.0453 34.5374 40.1125 33.5931C40.2158 33.5931 40.3192 33.4882 40.4225 33.4882C40.5259 33.4882 40.7326 33.3833 40.836 33.3833C41.5594 33.1734 42.2829 32.9636 43.0064 32.6488C43.3165 32.5439 43.6266 32.4389 43.9366 32.334C44.2467 32.2291 44.5568 32.1242 44.7635 32.1242C45.1769 32.0193 45.5903 31.9143 46.1071 31.9143C48.1742 32.1242 51.7917 31.5996 58.3032 28.4519C58.3032 28.4519 60.7837 28.8716 61.7139 28.1371C61.7139 28.1371 59.9569 30.0257 59.7502 30.7602C59.7502 30.7602 59.4401 31.2848 57.5797 31.1799C57.5797 31.1799 57.7864 31.1799 55.6159 30.8651C55.6159 30.8651 54.8924 30.97 54.7891 31.0749V34.7473C54.7891 35.6916 54.7891 36.426 54.8924 36.5309C55.0991 36.6359 55.3058 36.6359 55.5125 36.5309C55.6159 36.5309 55.6159 36.5309 55.6159 36.5309C55.6159 36.5309 57.2696 36.1113 58.4065 35.3768C58.5099 35.2719 58.7166 35.2719 58.8199 35.1669V35.1669C61.1887 33.6641 63.7993 32.448 65.5523 30.2579C66.0635 29.6192 66.5451 29.089 66.8817 28.8716C66.8817 28.8716 68.4321 27.8223 69.1556 26.6682C69.7757 27.8223 70.0858 28.3469 70.2925 28.5568C70.2925 28.5568 70.1892 28.5568 70.1892 28.6617C70.0858 28.8716 70.1892 29.2913 70.1892 29.2913C70.1892 29.9208 69.9824 30.1306 69.7757 30.2356C69.7757 30.2356 69.6724 30.2356 69.6724 30.3405H69.569C69.4656 30.4454 69.4657 30.4454 69.6724 30.7602C70.2925 31.4946 71.4294 30.97 71.9462 30.5503C72.5663 30.2356 73.1865 32.0193 73.2898 32.2291C73.3932 32.4389 74.5301 33.3833 75.357 32.6488C76.1838 31.9143 75.8737 31.9143 75.7704 31.8094L75.9771 31.2848C76.7006 29.8159 78.8711 26.0386 79.9046 24.9894C80.1114 24.7796 80.4214 24.3599 80.5248 24.0451C81.0416 23.3106 81.3516 21.527 81.3516 21.527C81.3516 21.422 81.3516 21.3171 81.455 21.2122V21.2122C83.1544 21.7872 85.0213 22.7864 86.3283 24.0154C86.5176 24.1934 86.7192 24.3788 86.9329 24.5697Z" fill="url(#paint0_linear)"/>
<path d="M6.66 63.46C7.548 63.46 8.352 63.664 9.072 64.072C9.792 64.468 10.356 65.032 10.764 65.764C11.172 66.496 11.376 67.33 11.376 68.266C11.376 69.202 11.172 70.036 10.764 70.768C10.356 71.5 9.792 72.07 9.072 72.478C8.352 72.886 7.548 73.09 6.66 73.09C5.868 73.09 5.154 72.922 4.518 72.586C3.894 72.25 3.39 71.764 3.006 71.128V73H1.782V59.644H3.06V65.332C3.456 64.72 3.96 64.258 4.572 63.946C5.196 63.622 5.892 63.46 6.66 63.46ZM6.57 71.956C7.23 71.956 7.83 71.806 8.37 71.506C8.91 71.194 9.33 70.756 9.63 70.192C9.942 69.628 10.098 68.986 10.098 68.266C10.098 67.546 9.942 66.904 9.63 66.34C9.33 65.776 8.91 65.344 8.37 65.044C7.83 64.732 7.23 64.576 6.57 64.576C5.898 64.576 5.292 64.732 4.752 65.044C4.224 65.344 3.804 65.776 3.492 66.34C3.192 66.904 3.042 67.546 3.042 68.266C3.042 68.986 3.192 69.628 3.492 70.192C3.804 70.756 4.224 71.194 4.752 71.506C5.292 71.806 5.898 71.956 6.57 71.956ZM22.5132 63.532V73H21.2892V71.272C20.9532 71.848 20.4912 72.298 19.9032 72.622C19.3152 72.934 18.6432 73.09 17.8872 73.09C16.6512 73.09 15.6732 72.748 14.9532 72.064C14.2452 71.368 13.8912 70.354 13.8912 69.022V63.532H15.1692V68.896C15.1692 69.892 15.4152 70.648 15.9072 71.164C16.3992 71.68 17.1012 71.938 18.0132 71.938C19.0092 71.938 19.7952 71.638 20.3712 71.038C20.9472 70.426 21.2352 69.58 21.2352 68.5V63.532H22.5132ZM28.7565 73.09C27.9045 73.09 27.2445 72.85 26.7765 72.37C26.3205 71.89 26.0925 71.224 26.0925 70.372V59.644H27.3705V70.264C27.3705 70.828 27.5025 71.26 27.7665 71.56C28.0305 71.848 28.4265 71.992 28.9545 71.992C29.2905 71.992 29.5785 71.938 29.8185 71.83L29.9085 72.892C29.5365 73.024 29.1525 73.09 28.7565 73.09ZM34.3112 73.09C33.4592 73.09 32.7992 72.85 32.3312 72.37C31.8752 71.89 31.6472 71.224 31.6472 70.372V59.644H32.9252V70.264C32.9252 70.828 33.0572 71.26 33.3212 71.56C33.5852 71.848 33.9812 71.992 34.5092 71.992C34.8452 71.992 35.1332 71.938 35.3732 71.83L35.4632 72.892C35.0912 73.024 34.7072 73.09 34.3112 73.09ZM49.0099 63.46C50.1979 63.46 51.1279 63.802 51.7999 64.486C52.4839 65.17 52.8259 66.178 52.8259 67.51V73H51.5479V67.636C51.5479 66.652 51.3079 65.902 50.8279 65.386C50.3599 64.87 49.6939 64.612 48.8299 64.612C47.8459 64.612 47.0719 64.918 46.5079 65.53C45.9439 66.13 45.6619 66.964 45.6619 68.032V73H44.3839V67.636C44.3839 66.652 44.1439 65.902 43.6639 65.386C43.1959 64.87 42.5239 64.612 41.6479 64.612C40.6759 64.612 39.9019 64.918 39.3259 65.53C38.7619 66.13 38.4799 66.964 38.4799 68.032V73H37.2019V63.532H38.4259V65.26C38.7619 64.684 39.2299 64.24 39.8299 63.928C40.4299 63.616 41.1199 63.46 41.8999 63.46C42.6919 63.46 43.3759 63.628 43.9519 63.964C44.5399 64.3 44.9779 64.798 45.2659 65.458C45.6139 64.834 46.1119 64.348 46.7599 64C47.4199 63.64 48.1699 63.46 49.0099 63.46ZM57.5158 65.386C57.8158 64.75 58.2598 64.27 58.8478 63.946C59.4478 63.622 60.1858 63.46 61.0618 63.46V64.702L60.7558 64.684C59.7598 64.684 58.9798 64.99 58.4158 65.602C57.8518 66.214 57.5698 67.072 57.5698 68.176V73H56.2918V63.532H57.5158V65.386ZM66.8857 68.248L64.6538 70.3V73H63.3758V59.644H64.6538V68.698L70.3058 63.532H71.8898L67.8398 67.402L72.2678 73H70.7018L66.8857 68.248ZM78.8483 72.424C78.6083 72.64 78.3143 72.808 77.9663 72.928C77.6183 73.036 77.2523 73.09 76.8683 73.09C75.9803 73.09 75.2963 72.85 74.8163 72.37C74.3363 71.89 74.0963 71.212 74.0963 70.336V61.462H75.3743V63.532H78.2363V64.612H75.3743V70.264C75.3743 70.828 75.5123 71.26 75.7883 71.56C76.0643 71.848 76.4663 71.992 76.9943 71.992C77.5703 71.992 78.0383 71.83 78.3983 71.506L78.8483 72.424ZM84.8808 71.956C85.4688 71.956 86.0088 71.854 86.5008 71.65C87.0048 71.434 87.4308 71.122 87.7788 70.714L88.4988 71.542C88.0788 72.046 87.5568 72.43 86.9328 72.694C86.3088 72.958 85.6188 73.09 84.8628 73.09C83.8908 73.09 83.0268 72.886 82.2708 72.478C81.5148 72.058 80.9268 71.482 80.5068 70.75C80.0868 70.018 79.8768 69.19 79.8768 68.266C79.8768 67.342 80.0748 66.514 80.4708 65.782C80.8788 65.05 81.4368 64.48 82.1448 64.072C82.8528 63.664 83.6568 63.46 84.5568 63.46C85.3968 63.46 86.1528 63.652 86.8248 64.036C87.5088 64.42 88.0488 64.954 88.4448 65.638C88.8528 66.322 89.0688 67.102 89.0928 67.978L81.3168 69.49C81.5568 70.258 81.9888 70.864 82.6128 71.308C83.2488 71.74 84.0048 71.956 84.8808 71.956ZM84.5568 64.558C83.8968 64.558 83.3028 64.714 82.7748 65.026C82.2588 65.326 81.8508 65.752 81.5508 66.304C81.2628 66.844 81.1188 67.468 81.1188 68.176C81.1188 68.356 81.1248 68.488 81.1368 68.572L87.8148 67.276C87.6708 66.484 87.3048 65.836 86.7168 65.332C86.1288 64.816 85.4088 64.558 84.5568 64.558Z" fill="#B71C1C"/>
<defs>
<linearGradient id="paint0_linear" x1="88.8864" y1="24.6569" x2="-0.0127647" y2="30.7666" gradientUnits="userSpaceOnUse">
<stop stop-color="#B71C1C"/>
<stop offset="1" stop-color="#F44336"/>
</linearGradient>
</defs>
</svg>
