<svg width="548" height="392" viewBox="0 0 548 392" fill="none" xmlns="http://www.w3.org/2000/svg">
<path d="M45.2897 41.052H250.171V108.031H45.2897V41.052Z" fill="black"/>
<path d="M129.399 183.654H250.171V250.633H129.399V183.654Z" fill="black"/>
<path d="M174.689 41.052H250.171V391.074H174.689V41.052Z" fill="black"/>
<path d="M0 0L174.689 108.031H37.93L0 0Z" fill="black"/>
<path d="M92.736 162.047L241.545 250.633H125.047L92.736 162.047Z" fill="black"/>
<path d="M174.689 302.488L273.895 391.074H196.229L174.689 302.488Z" fill="black"/>
<mask id="path-2-inside-1" fill="white">
<path d="M502.605 41.052H297.723V108.031H502.605V41.052Z"/>
<path d="M418.496 183.654H297.723V250.633H418.496V183.654Z"/>
<path d="M373.206 41.052H297.723V391.074H373.206V41.052Z"/>
<path d="M547.895 0L373.206 108.031H509.965L547.895 0Z"/>
<path d="M455.159 162.047L306.35 250.633H422.848L455.159 162.047Z"/>
<path d="M373.206 302.488L274 391.074H351.665L373.206 302.488Z"/>
</mask>
<path d="M502.605 41.052H297.723V108.031H502.605V41.052Z" fill="white"/>
<path d="M502.605 41.052H297.723V108.031H502.605V41.052Z" fill="white"/>
<path d="M502.605 41.052H297.723V108.031H502.605V41.052Z" fill="white"/>
<path d="M418.496 183.654H297.723V250.633H418.496V183.654Z" fill="white"/>
<path d="M418.496 183.654H297.723V250.633H418.496V183.654Z" fill="white"/>
<path d="M418.496 183.654H297.723V250.633H418.496V183.654Z" fill="white"/>
<path d="M373.206 41.052H297.723V391.074H373.206V41.052Z" fill="white"/>
<path d="M373.206 41.052H297.723V391.074H373.206V41.052Z" fill="white"/>
<path d="M373.206 41.052H297.723V391.074H373.206V41.052Z" fill="white"/>
<path d="M547.895 0L373.206 108.031H509.965L547.895 0Z" fill="white"/>
<path d="M547.895 0L373.206 108.031H509.965L547.895 0Z" fill="white"/>
<path d="M547.895 0L373.206 108.031H509.965L547.895 0Z" fill="white"/>
<path d="M455.159 162.047L306.35 250.633H422.848L455.159 162.047Z" fill="white"/>
<path d="M455.159 162.047L306.35 250.633H422.848L455.159 162.047Z" fill="white"/>
<path d="M455.159 162.047L306.35 250.633H422.848L455.159 162.047Z" fill="white"/>
<path d="M373.206 302.488L274 391.074H351.665L373.206 302.488Z" fill="white"/>
<path d="M373.206 302.488L274 391.074H351.665L373.206 302.488Z" fill="white"/>
<path d="M373.206 302.488L274 391.074H351.665L373.206 302.488Z" fill="white"/>
<path d="M502.605 41.052H503.605V40.052H502.605V41.052ZM297.723 41.052V40.052H296.723V41.052H297.723ZM297.723 108.031H296.723V109.031H297.723V108.031ZM502.605 108.031V109.031H503.605V108.031H502.605ZM418.496 183.654H419.496V182.654H418.496V183.654ZM297.723 183.654V182.654H296.723V183.654H297.723ZM297.723 250.633H296.723V251.633H297.723V250.633ZM418.496 250.633V251.633H419.496V250.633H418.496ZM373.206 41.052H374.206V40.052H373.206V41.052ZM297.723 391.074H296.723V392.074H297.723V391.074ZM373.206 391.074V392.074H374.206V391.074H373.206ZM547.895 0L548.838 0.331276L549.776 -2.33909L547.369 -0.850503L547.895 0ZM373.206 108.031L372.68 107.181L369.688 109.031H373.206V108.031ZM509.965 108.031V109.031H510.673L510.908 108.363L509.965 108.031ZM455.159 162.047L456.098 162.39L457.061 159.751L454.647 161.188L455.159 162.047ZM306.35 250.633L305.838 249.774L302.715 251.633H306.35V250.633ZM422.848 250.633V251.633H423.548L423.787 250.976L422.848 250.633ZM373.206 302.488L374.178 302.724L374.937 299.602L372.54 301.742L373.206 302.488ZM274 391.074L273.334 390.328L271.379 392.074H274V391.074ZM351.665 391.074V392.074H352.451L352.637 391.31L351.665 391.074ZM502.605 40.052H297.723V42.052H502.605V40.052ZM296.723 41.052V108.031H298.723V41.052H296.723ZM297.723 109.031H502.605V107.031H297.723V109.031ZM503.605 108.031V41.052H501.605V108.031H503.605ZM418.496 182.654H297.723V184.654H418.496V182.654ZM296.723 183.654V250.633H298.723V183.654H296.723ZM297.723 251.633H418.496V249.633H297.723V251.633ZM419.496 250.633V183.654H417.496V250.633H419.496ZM373.206 40.052H297.723V42.052H373.206V40.052ZM296.723 41.052V391.074H298.723V41.052H296.723ZM297.723 392.074H373.206V390.074H297.723V392.074ZM374.206 391.074V41.052H372.206V391.074H374.206ZM547.369 -0.850503L372.68 107.181L373.732 108.882L548.421 0.850503L547.369 -0.850503ZM373.206 109.031H509.965V107.031H373.206V109.031ZM510.908 108.363L548.838 0.331276L546.951 -0.331276L509.021 107.7L510.908 108.363ZM454.647 161.188L305.838 249.774L306.861 251.492L455.67 162.907L454.647 161.188ZM306.35 251.633H422.848V249.633H306.35V251.633ZM423.787 250.976L456.098 162.39L454.219 161.705L421.908 250.29L423.787 250.976ZM372.54 301.742L273.334 390.328L274.666 391.82L373.872 303.234L372.54 301.742ZM274 392.074H351.665V390.074H274V392.074ZM352.637 391.31L374.178 302.724L372.234 302.252L350.694 390.838L352.637 391.31Z" fill="white" mask="url(#path-2-inside-1)"/>
</svg>
