<svg width="452" height="449" viewBox="0 0 452 449" fill="none" xmlns="http://www.w3.org/2000/svg">
<rect x="68.7895" y="28.2637" width="140.992" height="46.1102" fill="black"/>
<rect x="68.7895" y="28.2637" width="140.992" height="46.1102" fill="black"/>
<rect x="68.7895" y="28.2637" width="140.992" height="46.1102" fill="black"/>
<rect x="126.671" y="126.43" width="83.1113" height="46.1102" fill="black"/>
<rect x="126.671" y="126.43" width="83.1113" height="46.1102" fill="black"/>
<rect x="126.671" y="126.43" width="83.1113" height="46.1102" fill="black"/>
<path d="M157.837 28.2611H209.782V269.224H157.837V28.2611Z" fill="black"/>
<path d="M37.6228 0L157.837 74.3713H63.7249L37.6228 0Z" fill="black"/>
<path d="M101.44 111.557L203.846 172.541H123.676L101.44 111.557Z" fill="black"/>
<path d="M157.837 208.24L226.107 269.224H172.661L157.837 208.24Z" fill="black"/>
<path d="M383.425 28.2611H242.433V74.3713H383.425V28.2611Z" fill="#03A9F4"/>
<path d="M383.425 28.2611H242.433V74.3713H383.425V28.2611Z" fill="#03A9F4"/>
<path d="M383.425 28.2611H242.433V74.3713H383.425V28.2611Z" fill="#03A9F4"/>
<path d="M325.544 126.431H242.433V172.541H325.544V126.431Z" fill="#03A9F4"/>
<path d="M325.544 126.431H242.433V172.541H325.544V126.431Z" fill="#03A9F4"/>
<path d="M325.544 126.431H242.433V172.541H325.544V126.431Z" fill="#03A9F4"/>
<path d="M294.377 28.2611H242.433V269.224H294.377V28.2611Z" fill="#03A9F4"/>
<path d="M294.377 28.2611H242.433V269.224H294.377V28.2611Z" fill="#03A9F4"/>
<path d="M294.377 28.2611H242.433V269.224H294.377V28.2611Z" fill="#03A9F4"/>
<path d="M414.592 0L294.377 74.3713H388.49L414.592 0Z" fill="#03A9F4"/>
<path d="M414.592 0L294.377 74.3713H388.49L414.592 0Z" fill="#03A9F4"/>
<path d="M414.592 0L294.377 74.3713H388.49L414.592 0Z" fill="#03A9F4"/>
<path d="M350.774 111.557L248.369 172.541H328.539L350.774 111.557Z" fill="#03A9F4"/>
<path d="M350.774 111.557L248.369 172.541H328.539L350.774 111.557Z" fill="#03A9F4"/>
<path d="M350.774 111.557L248.369 172.541H328.539L350.774 111.557Z" fill="#03A9F4"/>
<path d="M294.377 208.24L226.107 269.224H279.554L294.377 208.24Z" fill="#03A9F4"/>
<path d="M294.377 208.24L226.107 269.224H279.554L294.377 208.24Z" fill="#03A9F4"/>
<path d="M294.377 208.24L226.107 269.224H279.554L294.377 208.24Z" fill="#03A9F4"/>
<path d="M7.90745 285.897V315.348H46.5898V322.202H7.90745V354.009H0V279.043H51.2916V285.897H7.90745Z" fill="black"/>
<path d="M119.447 347.155V354.009H66.5521V279.043H117.844V285.897H74.4596V312.564H113.142V319.311H74.4596V347.155H119.447Z" fill="black"/>
<path d="M188.043 354.009L170.946 329.913C169.023 330.127 167.028 330.234 164.962 330.234H144.873V354.009H136.965V279.043H164.962C174.508 279.043 181.988 281.328 187.402 285.897C192.816 290.466 195.523 296.749 195.523 304.746C195.523 310.6 194.027 315.562 191.035 319.632C188.114 323.63 183.911 326.522 178.426 328.307L196.699 354.009H188.043ZM164.748 323.487C172.157 323.487 177.821 321.845 181.739 318.561C185.657 315.277 187.616 310.672 187.616 304.746C187.616 298.677 185.657 294.036 181.739 290.823C177.821 287.539 172.157 285.897 164.748 285.897H144.873V323.487H164.748Z" fill="black"/>
<path d="M264.196 354.009L247.099 329.913C245.175 330.127 243.181 330.234 241.115 330.234H221.025V354.009H213.118V279.043H241.115C250.661 279.043 258.141 281.328 263.555 285.897C268.969 290.466 271.676 296.749 271.676 304.746C271.676 310.6 270.18 315.562 267.188 319.632C264.267 323.63 260.064 326.522 254.579 328.307L272.851 354.009H264.196ZM240.901 323.487C248.31 323.487 253.973 321.845 257.891 318.561C261.809 315.277 263.768 310.672 263.768 304.746C263.768 298.677 261.809 294.036 257.891 290.823C253.973 287.539 248.31 285.897 240.901 285.897H221.025V323.487H240.901Z" fill="black"/>
<path d="M336.181 333.983H294.507L285.531 354.009H277.303L311.497 279.043H319.298L353.492 354.009H345.157L336.181 333.983ZM333.296 327.557L315.344 287.289L297.392 327.557H333.296Z" fill="black"/>
<path d="M415.875 354.009L398.778 329.913C396.854 330.127 394.86 330.234 392.794 330.234H372.705V354.009H364.797V279.043H392.794C402.34 279.043 409.82 281.328 415.234 285.897C420.648 290.466 423.355 296.749 423.355 304.746C423.355 310.6 421.859 315.562 418.867 319.632C415.946 323.63 411.743 326.522 406.258 328.307L424.53 354.009H415.875ZM392.58 323.487C399.989 323.487 405.652 321.845 409.57 318.561C413.488 315.277 415.448 310.672 415.448 304.746C415.448 298.677 413.488 294.036 409.57 290.823C405.652 287.539 399.989 285.897 392.58 285.897H372.705V323.487H392.58Z" fill="black"/>
<path d="M440.95 279.043H448.857V354.009H440.95V279.043Z" fill="black"/>
<path d="M17.4993 386.668V406.481H52.1212V420.403H17.4993V447.712H0.188446V372.746H56.716V386.668H17.4993Z" fill="#03A9F4"/>
<path d="M68.4353 372.746H85.7462V447.712H68.4353V372.746Z" fill="#03A9F4"/>
<path d="M118.992 386.883H95.0561V372.746H160.239V386.883H136.303V447.712H118.992V386.883Z" fill="#03A9F4"/>
<path d="M238.156 372.746V447.712H223.944L186.65 402.197V447.712H169.553V372.746H183.872L221.059 418.261V372.746H238.156Z" fill="#03A9F4"/>
<path d="M313.77 433.79V447.712H255.853V372.746H312.381V386.668H273.057V402.947H307.786V416.441H273.057V433.79H313.77Z" fill="#03A9F4"/>
<path d="M352.121 448.997C346.208 448.997 340.473 448.212 334.917 446.641C329.431 444.999 325.015 442.893 321.667 440.323L327.544 427.257C330.749 429.613 334.561 431.505 338.977 432.933C343.394 434.361 347.811 435.075 352.228 435.075C357.143 435.075 360.776 434.361 363.127 432.933C365.478 431.434 366.654 429.471 366.654 427.043C366.654 425.258 365.941 423.795 364.516 422.652C363.163 421.438 361.382 420.475 359.173 419.761C357.036 419.047 354.116 418.261 350.411 417.405C344.712 416.048 340.046 414.691 336.413 413.335C332.78 411.978 329.645 409.801 327.009 406.802C324.445 403.804 323.163 399.805 323.163 394.808C323.163 390.452 324.338 386.526 326.689 383.027C329.04 379.457 332.566 376.637 337.268 374.567C342.041 372.496 347.847 371.461 354.685 371.461C359.458 371.461 364.125 372.032 368.684 373.174C373.243 374.317 377.232 375.959 380.652 378.101L375.309 391.273C368.399 387.347 361.489 385.383 354.579 385.383C349.734 385.383 346.137 386.169 343.786 387.739C341.506 389.31 340.367 391.381 340.367 393.951C340.367 396.521 341.684 398.449 344.32 399.734C347.027 400.948 351.124 402.161 356.609 403.375C362.308 404.732 366.974 406.088 370.607 407.445C374.24 408.801 377.339 410.943 379.904 413.87C382.54 416.798 383.858 420.76 383.858 425.758C383.858 430.042 382.646 433.969 380.224 437.538C377.874 441.037 374.312 443.821 369.539 445.892C364.766 447.962 358.96 448.997 352.121 448.997Z" fill="#03A9F4"/>
<path d="M420.263 448.997C414.351 448.997 408.616 448.212 403.059 446.641C397.574 444.999 393.157 442.893 389.809 440.323L395.686 427.257C398.892 429.613 402.703 431.505 407.12 432.933C411.537 434.361 415.953 435.075 420.37 435.075C425.286 435.075 428.919 434.361 431.27 432.933C433.621 431.434 434.796 429.471 434.796 427.043C434.796 425.258 434.084 423.795 432.659 422.652C431.305 421.438 429.524 420.475 427.316 419.761C425.179 419.047 422.258 418.261 418.554 417.405C412.855 416.048 408.188 414.691 404.555 413.335C400.922 411.978 397.788 409.801 395.152 406.802C392.587 403.804 391.305 399.805 391.305 394.808C391.305 390.452 392.48 386.526 394.831 383.027C397.182 379.457 400.708 376.637 405.41 374.567C410.183 372.496 415.989 371.461 422.828 371.461C427.601 371.461 432.267 372.032 436.826 373.174C441.386 374.317 445.375 375.959 448.794 378.101L443.451 391.273C436.541 387.347 429.631 385.383 422.721 385.383C417.877 385.383 414.279 386.169 411.928 387.739C409.649 389.31 408.509 391.381 408.509 393.951C408.509 396.521 409.827 398.449 412.463 399.734C415.17 400.948 419.266 402.161 424.751 403.375C430.45 404.732 435.117 406.088 438.75 407.445C442.383 408.801 445.482 410.943 448.046 413.87C450.682 416.798 452 420.76 452 425.758C452 430.042 450.789 433.969 448.367 437.538C446.016 441.037 442.454 443.821 437.681 445.892C432.908 447.962 427.102 448.997 420.263 448.997Z" fill="#03A9F4"/>
</svg>
