<svg width="549" height="392" viewBox="0 0 549 392" fill="none" xmlns="http://www.w3.org/2000/svg">
<rect x="45.3723" y="41.0518" width="205.256" height="66.9795" fill="#03A9F4"/>
<rect x="129.635" y="183.653" width="120.993" height="66.9795" fill="#03A9F4"/>
<path d="M175.008 41.052H250.628V391.074H175.008V41.052Z" fill="#03A9F4"/>
<path d="M0 0L175.008 108.031H37.9993L0 0Z" fill="#03A9F4"/>
<path d="M92.9053 162.047L241.986 250.633H125.275L92.9053 162.047Z" fill="#03A9F4"/>
<path d="M175.008 302.488L274.395 391.074H196.587L175.008 302.488Z" fill="#03A9F4"/>
<path d="M503.417 41.052H298.161V108.031H503.417V41.052Z" fill="#03A9F4"/>
<path d="M503.417 41.052H298.161V108.031H503.417V41.052Z" fill="#03A9F4"/>
<path d="M503.417 41.052H298.161V108.031H503.417V41.052Z" fill="#03A9F4"/>
<path d="M419.154 183.654H298.161V250.633H419.154V183.654Z" fill="#03A9F4"/>
<path d="M419.154 183.654H298.161V250.633H419.154V183.654Z" fill="#03A9F4"/>
<path d="M419.154 183.654H298.161V250.633H419.154V183.654Z" fill="#03A9F4"/>
<path d="M373.782 41.052H298.161V391.074H373.782V41.052Z" fill="#03A9F4"/>
<path d="M373.782 41.052H298.161V391.074H373.782V41.052Z" fill="#03A9F4"/>
<path d="M373.782 41.052H298.161V391.074H373.782V41.052Z" fill="#03A9F4"/>
<path d="M548.789 0L373.782 108.031H510.79L548.789 0Z" fill="#03A9F4"/>
<path d="M548.789 0L373.782 108.031H510.79L548.789 0Z" fill="#03A9F4"/>
<path d="M548.789 0L373.782 108.031H510.79L548.789 0Z" fill="#03A9F4"/>
<path d="M455.884 162.047L306.803 250.633H423.514L455.884 162.047Z" fill="#03A9F4"/>
<path d="M455.884 162.047L306.803 250.633H423.514L455.884 162.047Z" fill="#03A9F4"/>
<path d="M455.884 162.047L306.803 250.633H423.514L455.884 162.047Z" fill="#03A9F4"/>
<path d="M373.782 302.488L274.395 391.074H352.202L373.782 302.488Z" fill="#03A9F4"/>
<path d="M373.782 302.488L274.395 391.074H352.202L373.782 302.488Z" fill="#03A9F4"/>
<path d="M373.782 302.488L274.395 391.074H352.202L373.782 302.488Z" fill="#03A9F4"/>
</svg>
