<?xml version="1.0" encoding="UTF-8"?>
<svg width="577px" height="458px" viewBox="0 0 577 458" version="1.1" xmlns="http://www.w3.org/2000/svg" xmlns:xlink="http://www.w3.org/1999/xlink">
    <!-- Generator: Sketch 53.2 (72643) - https://sketchapp.com -->
    <title>bluelogo</title>
    <desc>Created with Sketch.</desc>
    <g id="Page-1" stroke="none" stroke-width="1" fill="none" fill-rule="evenodd">
        <g id="bluelogo" fill="#00B0FF">
            <path d="M491,63.8277202 L491,289.600509 C491,336.993452 476.238993,376.033774 446.716535,406.722646 C413.503771,440.90772 372.716777,458 324.354331,458 C275.991884,458 235.302002,440.90772 202.283465,406.722646 C172.761007,376.033774 158,336.993452 158,289.600509 L158,235.783679 L67.9461577,235.783679 L67.9461577,450 L-4.54747351e-13,450 L-4.54747351e-13,0 L576.963845,0 L492.0408,63.8277202 L491,63.8277202 Z M423.11811,63.8277202 L225.88189,63.8277202 L225.88189,171.955959 L288.5,171.955959 L228.144009,235.783679 L225.88189,235.783679 L225.88189,270.954198 C225.88189,309.606639 232.194163,337.867171 244.818898,355.736641 C263.658887,381.56968 290.170433,394.486005 324.354331,394.486005 C358.732455,394.486005 385.341113,381.56968 404.181102,355.736641 C416.805837,338.449871 423.11811,310.18934 423.11811,270.954198 L423.11811,63.8277202 Z M158,63.8277202 L67.9461577,63.8277202 L67.9461577,171.955959 L158,171.955959 L158,63.8277202 Z" id="Logo_Black-Copy-7"></path>
        </g>
    </g>
</svg>