<?xml version="1.0" encoding="UTF-8"?>
<svg width="577px" height="458px" viewBox="0 0 577 458" version="1.1" xmlns="http://www.w3.org/2000/svg" xmlns:xlink="http://www.w3.org/1999/xlink">
    <!-- Generator: Sketch 52.6 (67491) - http://www.bohemiancoding.com/sketch -->
    <title>Logowhitev2</title>
    <desc>Created with Sketch.</desc>
    <g id="Page-1" stroke="none" stroke-width="1" fill="none" fill-rule="evenodd">
        <path d="M511.180577,65 L67.9461577,63.8277202 L67.9461577,171.955959 L292.899249,171.955959 L228.144009,235.783679 L67.9461577,235.783679 L67.9461577,450 L0,450 L0,0 L576.963845,0 L511.180577,65 Z M181.88189,0 L181.88189,270.954198 C181.88189,309.606639 188.194163,337.867171 200.818898,355.736641 C219.658887,381.56968 246.170433,394.486005 280.354331,394.486005 C314.732455,394.486005 341.341113,381.56968 360.181102,355.736641 C372.805837,338.449871 379.11811,310.18934 379.11811,270.954198 L379.11811,0 L447,0 L447,289.600509 C447,336.993452 432.238993,376.033774 402.716535,406.722646 C369.503771,440.90772 328.716777,458 280.354331,458 C231.991884,458 191.302002,440.90772 158.283465,406.722646 C128.761007,376.033774 114,336.993452 114,289.600509 L114,0 L181.88189,0 Z" id="Logowhitev2" fill="#FFFFFF"></path>
    </g>
</svg>