<svg width="1875" height="1495" viewBox="0 0 1875 1495" fill="none" xmlns="http://www.w3.org/2000/svg">
<path d="M566.976 0C652.078 0 741.877 3.03862 836.373 9.11585C925.08 14.7877 1017.88 25.5123 1114.77 41.2897C1126.81 43.25 1135.61 53.6774 1135.61 65.8744V255.244C1089.19 241.984 1042.22 231.211 994.695 222.924C947.171 214.084 899.37 207.178 851.293 202.206C803.769 197.234 756.244 193.643 708.72 191.433C661.196 189.223 613.948 187.842 566.976 187.289C544.319 187.289 519.176 187.842 491.545 188.947C464.467 189.499 435.179 190.604 403.68 192.262C372.734 193.919 340.407 196.405 306.698 199.72C272.989 203.035 238.727 207.178 203.912 212.151V717.666H877.686C891.493 717.666 902.686 728.859 902.686 742.666V899.155H203.912V1395.05C203.912 1406.16 196.59 1415.93 185.933 1419.05L0 1473.45V65.8367C0 53.6563 8.77839 43.2377 20.7974 41.2616C116.664 25.4995 208.925 14.7843 297.58 9.11585C393.181 3.03862 482.98 0 566.976 0Z" fill="white"/>
<path d="M746.021 1140.31C746.021 1164.62 755.139 1187.27 773.375 1208.26C792.164 1229.26 818.413 1247.77 852.122 1263.79C886.384 1279.26 927.277 1291.69 974.801 1301.08C1022.88 1309.92 1076.48 1314.34 1135.61 1314.34C1195.84 1314.34 1250 1309.64 1298.08 1300.25C1346.15 1290.31 1386.77 1277.32 1419.93 1261.3C1453.64 1245.28 1479.33 1226.77 1497.02 1205.78C1514.7 1184.78 1523.54 1162.96 1523.54 1140.31V261.544C1523.54 247.281 1535.46 235.896 1549.7 236.698C1587.57 238.832 1623.62 241.699 1657.82 245.299C1699.82 249.167 1737.12 253.31 1769.73 257.73C1799.43 261.66 1827.57 265.762 1854.16 270.037C1866.2 271.972 1875 282.4 1875 294.596V485.626C1861.74 481.207 1842.67 475.958 1817.81 469.881C1792.94 463.251 1765.58 457.45 1735.74 452.478V1201.64C1735.74 1245.28 1849.86 1437.54 1817.81 1473.45C1786.31 1509.36 1613.06 1387.82 1558.36 1413.79C1504.2 1439.2 1440.65 1459.09 1367.71 1473.45C1294.76 1487.82 1217.4 1495 1135.61 1495C1053.27 1495 975.63 1487.82 902.686 1473.45C829.741 1459.09 765.915 1439.2 711.207 1413.79C656.499 1387.82 613.119 1356.88 581.068 1320.97C549.569 1285.06 533.82 1245.28 533.82 1201.64V452.478C503.979 458.555 476.348 464.632 450.928 470.71C426.061 476.234 407.272 481.207 394.562 485.626V294.472C394.562 282.331 403.282 271.931 415.262 269.963C441.129 265.715 469.044 261.637 499.005 257.73C531.057 253.31 568.358 249.167 610.909 245.299C645.577 241.698 681.896 238.831 719.866 236.697C734.106 235.896 746.021 247.281 746.021 261.544V1140.31Z" fill="white"/>
</svg>
